<?xml version="1.0" encoding="UTF-8"?>
<svg id="Lag_1" xmlns="http://www.w3.org/2000/svg" viewBox="0 0 435.32 394.78">
  <defs>
    <style>
      .cls-1 {
        fill: #e8bea9;
      }

      .cls-2 {
        fill: #92a1b2;
      }

      .cls-3 {
        fill: #e9e5e4;
      }

      .cls-4 {
        fill: #193758;
      }

      .cls-5 {
        fill: #4383ad;
      }

      .cls-6 {
        fill: #ecb5a1;
      }

      .cls-7 {
        fill: #729edb;
      }

      .cls-8 {
        fill: #fff;
      }

      .cls-9 {
        fill: #f4f6f8;
      }

      .cls-10 {
        fill: #314572;
      }

      .cls-11 {
        fill: #004d78;
      }

      .cls-12 {
        opacity: .3;
      }

      .cls-13 {
        fill: #ccd9ed;
      }

      .cls-14 {
        fill: #f5f5f5;
      }

      .cls-15 {
        fill: #445f8e;
      }

      .cls-16 {
        fill: #19132e;
      }

      .cls-17 {
        fill: #d8e7f5;
      }

      .cls-18 {
        fill: #eaf0f9;
      }
    </style>
  </defs>
  <path class="cls-18" d="M430.8,300.62c.21-25.66-8.78-35.42-14.74-53.19-7.29-21.71-11.9-37.34-1.12-60.91,17.61-38.51,50.09-137.02-40.42-142.8-32.44-2.07-65.75,21.5-92.35,46.47-22.64,21.24-50.6,17.5-74.32,18.47-29.14,1.19-59.88,5.85-89.59,16-61.2,20.9-90.57,63.61-106.38,122.96-4.78,17.93-11.23,46.41,3.55,84.56,19.95,51.49,71.23,53.29,135.86,45.6,14.79-1.76,29.66-6.33,44.49-8.98,15.41-2.75,30.77-3.43,45.68-2.01,34.77,3.32,62.87,32.59,98.77,27.38,18.98-2.75,38.2-11.15,55.28-24.14,21.33-16.23,35.09-42.32,35.32-69.4Z"/>
  <g>
    <polygon class="cls-13" points="291.82 377.66 137.68 377.66 123.31 370.95 123.31 291.01 291.82 291.01 291.82 377.66"/>
    <rect class="cls-9" x="291.82" y="291.01" width="115.93" height="86.65"/>
    <path class="cls-11" d="M314.63,370.44h-183.72c-2.1,0-4-1.22-5.37-3.18-1.38-1.96-2.23-4.67-2.23-7.66v-54.17c0-5.97,3.41-10.83,7.6-10.83h183.72v-7.22h-183.72c-6.99,0-12.67,8.1-12.67,18.06v54.17c0,9.96,5.68,18.06,12.67,18.06h183.72v-7.22Z"/>
    <rect class="cls-5" x="314.63" y="287.37" width="103.9" height="7.22"/>
    <rect class="cls-5" x="314.63" y="370.44" width="103.9" height="7.22"/>
    <g class="cls-12">
      <rect class="cls-2" x="291.82" y="302.54" width="115.93" height="2.17"/>
    </g>
    <g class="cls-12">
      <rect class="cls-2" x="291.82" y="316.98" width="115.93" height="2.17"/>
    </g>
    <g class="cls-12">
      <rect class="cls-2" x="291.82" y="331.43" width="115.93" height="2.17"/>
    </g>
    <g class="cls-12">
      <rect class="cls-2" x="291.82" y="345.43" width="115.93" height="2.17"/>
    </g>
    <g class="cls-12">
      <rect class="cls-2" x="291.82" y="359.42" width="115.93" height="2.17"/>
    </g>
    <path class="cls-7" d="M278.73,287.37h-139.64c-1.39,0-2.47-1.74-2.47-3.97v-65.3c0-2.23,1.14-4.05,2.53-4.05l138.53-.69c1.39,0-1.29,1.26-4.65,5.15-3.37,3.89-4.08,54.75-2.04,61.27,2.04,6.52,9.14,7.6,7.75,7.6Z"/>
    <path class="cls-17" d="M278.07,287.38h102.81c1.52,0,2.76-1.49,2.76-3.3v-66.37c0-1.82-1.24-3.3-2.76-3.3h-99.51c-1.52,0-11.73,12.78-11.73,14.6v43.79c0,1.82,6.9,14.6,8.42,14.6Z"/>
    <path class="cls-7" d="M400.15,281.44h-122.08c-2.79,0-5.05-3.99-5.05-8.88v-44.42c0-4.9,2.27-8.88,5.05-8.88h122.08v-5.92h-122.08c-4.64,0-8.42,6.64-8.42,14.81v44.42c0,8.16,3.78,14.81,8.42,14.81h122.08v-5.92Z"/>
    <path class="cls-7" d="M274.58,221.62s5.02-8.33,3.49-8.29l-138.89.71c-1.41,0-2.57,1.82-2.57,4.05v3.53h137.97Z"/>
    <g class="cls-12">
      <rect class="cls-2" x="272.83" y="226.59" width="110.81" height="2.17"/>
    </g>
    <g class="cls-12">
      <rect class="cls-2" x="273.02" y="241.3" width="110.96" height="2.17"/>
    </g>
    <g class="cls-12">
      <rect class="cls-2" x="273.02" y="255.75" width="110.95" height="2.17"/>
    </g>
    <g class="cls-12">
      <rect class="cls-2" x="273.02" y="269.75" width="110.95" height="2.17"/>
    </g>
    <path class="cls-7" d="M279.12,281.98h-137.93c-2.79,0-5.05-3.99-5.05-8.88v-44.42c0-4.9,2.27-8.88,5.05-8.88h122.08v-5.92h-122.08c-4.64,0-8.42,6.64-8.42,14.81v44.42c0,8.16,3.78,14.81,8.42,14.81h137.93v-5.92Z"/>
  </g>
  <g>
    <path class="cls-7" d="M20.46,38.91L201.29,13.84s6.13-3.18,7.52,6.81c1.38,9.99,29.86,215.38,29.86,215.38l-187.29,25.96L20.46,38.91Z"/>
    <path class="cls-7" d="M30.21,37.32l-14.98,2.08C5.61,40.73-1.17,49.69.17,59.3l31.3,225.8c.24,1.7.72,3.31,1.4,4.81,1.11-14.61,12.31-27.07,27.38-29.16l.92-.13L30.21,37.32Z"/>
    <path class="cls-8" d="M236.34,243.71l-178.73,24.78c-10.72,1.49-18.27,11.47-16.78,22.19h0c1.49,10.72,11.47,18.27,22.19,16.78l178.73-24.78-5.4-38.97Z"/>
    <path class="cls-3" d="M39.89,290.8h0c.25,1.78.74,3.45,1.42,5.03l197.5-27.38-3.41-24.61-178.73,24.78c-10.72,1.49-18.27,11.47-16.78,22.19Z"/>
    <path class="cls-4" d="M248.58,281.51l-187.3,25.96c-9.12,1.26-17.57-5.13-18.84-14.25l-.35-2.53c-1.26-9.12,5.13-17.57,14.25-18.84l187.3-25.96-1.38-9.99-187.3,25.96c-14.63,2.03-24.88,15.58-22.85,30.21l.35,2.53c2.03,14.63,15.58,24.88,30.21,22.85l187.3-25.96-1.38-9.99Z"/>
    <rect class="cls-15" x="40.82" y="36.72" width="3.03" height="225.81" transform="translate(-20.14 7.23) rotate(-7.89)"/>
    <rect class="cls-14" x="68.64" y="76.29" width="115.97" height="73.79" rx="5.17" ry="5.17" transform="translate(-14.34 18.46) rotate(-7.89)"/>
  </g>
  <g>
    <path class="cls-7" d="M255.26,59.23l14.75,38.37s40.73-32.93,53.92-29.12l-.44,19.18-45.34,28.56s-15.33,7.01-20.58-6.87c-5.25-13.88-17.33-45.77-17.33-45.77l15.02-4.36Z"/>
    <polygon class="cls-1" points="252.23 38.48 247.85 37.31 246.37 44.99 240.54 35.24 240.24 30.6 234.94 34.68 232.95 45.15 237.34 54.99 242.44 62.81 252.31 62.02 252.23 38.48"/>
    <path class="cls-16" d="M330.07,382.68c5.64,1.7,10.35-.14,10.35-.14,0,0,.88,2.81,5.59-1.16,4.71-3.97-5.42-5.81-5.42-5.81l-15.02-2.31-4.46.58s-9.39,5.06-2.94,6.09c6.45,1.02,7.54,1.44,11.91,2.75Z"/>
    <path class="cls-6" d="M340.02,271.26h-23.15l15.79,100.67c-.5-.03-.88.09-1.06.39-.45.73.29,2.26,1.72,3.76l.03.16.17.04c.32.33.68.65,1.06.96,2.21,1.8,4.46,2.5,5.03,1.58.18-.29.17-.7.01-1.18l.41.09v-106.48Z"/>
    <path class="cls-16" d="M362.55,383.7c4.77,1.15,8.3-.36,8.3-.36,0,0,.1.31,3.76-2.44,3.65-2.74-4.17-6.01-4.17-6.01l-12.54-.86-3.62,1.01s-7.32,5.94-1.93,6.34c5.39.4,6.52,1.43,10.22,2.32Z"/>
    <path class="cls-6" d="M369.72,271.46h-23.15l15.79,100.67c-.5-.03-.88.09-1.06.39-.45.73.29,2.26,1.72,3.76l.03.16.17.04c.32.33.68.65,1.06.96,2.21,1.8,4.46,2.5,5.03,1.58.18-.29.17-.7.01-1.18l.41.09v-106.48Z"/>
    <path class="cls-10" d="M375.98,277.59s-21.07-1.03-40.32-.51c-19.25.51-33.59-4.55-33.59-4.55,0,0,4.74-12.2,3.92-29.14-.82-16.94-2.48-38.27-.17-54.21,2.31-15.94,13.89-36.81,13.89-36.81h45.23s11.42,14.51,13.71,51.84c2.29,37.33-2.68,73.38-2.68,73.38Z"/>
    <path class="cls-7" d="M369.9,150.1c5.57,8.37-55.75,2.84-55.75,2.84,0,0-8.93-8.61-1.21-41.74,7.72-33.13,4.74-43.21,4.74-43.21l47.11-2.84s9.37,20.27,9.06,33.24c-.31,12.97-9.51,43.33-3.94,51.7Z"/>
    <path class="cls-7" d="M390,131.04s-9.63-50.38-25.72-59.98c-16.08-9.59-.85,26.94-.85,26.94l10.63,32.34-7.54,19.1s2.94,18.6,6.81,17.24c3.87-1.36,16.66-35.64,16.66-35.64Z"/>
    <ellipse class="cls-6" cx="327" cy="38.95" rx="8.96" ry="14.48" transform="translate(-1.75 19.73) rotate(-3.45)"/>
    <path class="cls-10" d="M362.33,44.97c-2.59-4.21-1.13-6.75.99-11.61s.99-11.01.76-14.8c-.66-10.98-11.43-19.27-24.06-18.51-12.63.76-22.32,10.28-21.66,21.26.45,7.52,6.43,10.43,9.28,14.69,2.85,4.27,1.11,7.12,0,11.69s-2.78,9.63-2.41,15.82c.7,11.68,11.67,20.52,24.49,19.75,12.82-.77,22.65-10.87,21.95-22.55-.39-6.53-6.75-11.54-9.34-15.75Z"/>
  </g>
</svg>